<svg width="36" height="31" viewBox="0 0 36 31" fill="none" xmlns="http://www.w3.org/2000/svg">
<path d="M35.4721 18.8694L29.6686 3.43607C29.6669 3.43304 29.6669 3.43002 29.6656 3.427L29.6639 3.42535C28.899 1.38986 26.9234 0.0234375 24.75 0.0234375C22.5766 0.0234375 20.601 1.38986 19.8344 3.427C19.6125 4.01807 19.4999 4.64044 19.4999 5.27353V12.0235H16.5001V5.27353C16.5001 2.37836 14.1449 0.0234375 11.25 0.0234375C9.07663 0.0234375 7.10101 1.38986 6.33444 3.427C6.33307 3.43002 6.33307 3.43304 6.33142 3.43607L0.527893 18.865C0.527893 18.8664 0.52652 18.8664 0.52652 18.8664C0.17688 19.798 0 20.7744 0 21.7733C0 26.3231 3.70212 30.0235 8.24991 30.0235C12.798 30.0235 16.5001 26.3231 16.5001 21.7733V21.0235H19.4999V21.7733C19.4999 26.3231 23.202 30.0235 27.7501 30.0235C32.2979 30.0235 36 26.3231 36 21.7733C36 20.7744 35.8231 19.798 35.4721 18.8694ZM8.24991 27.0234C5.35501 27.0234 3.00009 24.6685 3.00009 21.7733C3.00009 21.1375 3.11243 20.5149 3.33463 19.9254C4.09955 17.8913 6.07489 16.5235 8.24991 16.5235C11.1451 16.5235 13.5 18.8784 13.5 21.7733C13.5 24.6685 11.1451 27.0234 8.24991 27.0234ZM27.7501 27.0234C24.8549 27.0234 22.5 24.6685 22.5 21.7733C22.5 18.8784 24.8549 16.5235 27.7501 16.5235C29.9251 16.5235 31.9005 17.8913 32.6654 19.9254C32.8876 20.5149 32.9999 21.1375 32.9999 21.7733C32.9999 24.6685 30.645 27.0234 27.7501 27.0234Z" fill="#319F1C"/>
</svg>
