<svg width="36" height="40" viewBox="0 0 36 40" fill="none" xmlns="http://www.w3.org/2000/svg">
<path d="M4.74699 26.1246C4.74136 26.0385 4.73741 25.9519 4.73741 25.8643C4.73741 24.329 5.62492 23.001 6.90466 22.3828C6.65219 22.1528 6.41132 21.9146 6.18617 21.6666C6.03489 21.4998 5.82478 21.4011 5.60206 21.3923C5.37909 21.3829 5.16226 21.4649 4.99854 21.6189L3.14696 23.3614C2.80607 23.6822 2.78515 24.2235 3.10023 24.5707C3.60139 25.1232 4.15297 25.6414 4.74699 26.1246Z" fill="#319F1C"/>
<path d="M35.9667 38.465L34.3137 34.4908L34.4666 34.3954C34.8623 34.148 34.9862 33.6212 34.7433 33.2183L30.7195 26.5412C31.5197 25.9434 32.2515 25.2854 32.8996 24.5711C33.2147 24.224 33.1938 23.6825 32.8528 23.3618L31.0013 21.6192C30.8376 21.4652 30.6197 21.3835 30.3977 21.3926C30.1751 21.4015 29.9649 21.5003 29.8136 21.6669C29.4215 22.099 28.9862 22.5041 28.5138 22.8811L23.5367 14.6219C24.1807 13.5889 24.5555 12.3657 24.5555 11.0544C24.5555 8.51892 23.1599 6.30944 21.1099 5.17972C21.6013 4.69825 21.9079 4.02269 21.9079 3.27524C21.9079 1.81715 20.743 0.630859 19.311 0.630859H16.6888C15.2569 0.630859 14.0919 1.81715 14.0919 3.27524C14.0919 4.02269 14.3986 4.69825 14.8899 5.17972C12.84 6.30944 11.4444 8.51892 11.4444 11.0544C11.4444 12.3657 11.8192 13.5889 12.4633 14.6217L7.98535 22.0527C8.16 22.0274 8.33826 22.0134 8.51963 22.0134C10.2797 22.0134 11.7629 23.2443 12.1827 24.905L16.6001 17.5749C17.0514 17.6752 17.5194 17.7297 17.9999 17.7297C18.4804 17.7297 18.9485 17.6752 19.3998 17.5749L24.0277 25.2547C22.1798 25.8686 20.1295 26.1998 17.9998 26.1998C15.9827 26.1998 14.0369 25.9022 12.2667 25.3492C12.289 25.518 12.3016 25.6897 12.3016 25.8646C12.3016 27.2977 11.5281 28.5497 10.3845 29.2127C12.7345 30.0339 15.3261 30.4787 17.9998 30.4787C20.9237 30.4787 23.7502 29.9482 26.2689 28.9737L30.4451 35.9039C30.5617 36.0973 30.749 36.2357 30.9657 36.2885C31.0304 36.3044 31.096 36.312 31.1613 36.312C31.3153 36.312 31.4677 36.2689 31.6009 36.1856L31.8397 36.0364L34.5919 39.3287C34.6743 39.4272 34.7924 39.4793 34.9122 39.4793C34.9878 39.4793 35.0643 39.4586 35.1327 39.4156L35.8 38.9963C35.977 38.885 36.0476 38.6595 35.9667 38.465ZM18 15.1621C15.7756 15.1621 13.9658 13.3194 13.9658 11.0543C13.9658 9.23752 15.1306 7.69342 16.7393 7.15299V9.59943C16.7393 10.3084 17.3038 10.8831 18 10.8831C18.6962 10.8831 19.2607 10.3084 19.2607 9.59943V7.15299C20.8694 7.69334 22.0342 9.23744 22.0342 11.0543C22.0342 13.3194 20.2244 15.1621 18 15.1621Z" fill="#319F1C"/>
<path d="M4.94034 27.1055L1.25663 33.2184C1.0139 33.621 1.13779 34.148 1.53339 34.3953L1.68635 34.4909L0.0333459 38.4651C-0.0475898 38.6594 0.0230083 38.8851 0.199588 38.9961L0.866992 39.4154C0.935405 39.4584 1.01172 39.4791 1.08753 39.4791C1.20721 39.4791 1.32538 39.4273 1.40774 39.3285L4.15997 36.0362L4.39883 36.1854C4.53213 36.2687 4.6845 36.3118 4.83839 36.3118C4.90378 36.3118 4.96942 36.3039 5.03405 36.2883C5.2508 36.2355 5.43814 36.0971 5.55471 35.9037L9.33936 29.6232C9.0752 29.6828 8.80121 29.7154 8.51966 29.7154C6.86077 29.7155 5.44889 28.6218 4.94034 27.1055Z" fill="#319F1C"/>
<path d="M8.49023 27.9193C9.60424 27.9193 10.5073 26.9995 10.5073 25.8649C10.5073 24.7303 9.60424 23.8105 8.49023 23.8105C7.37623 23.8105 6.47314 24.7303 6.47314 25.8649C6.47314 26.9995 7.37623 27.9193 8.49023 27.9193Z" fill="#319F1C"/>
</svg>
