<svg width="30" height="27" viewBox="0 0 30 27" fill="none" xmlns="http://www.w3.org/2000/svg">
<path d="M13.6875 20.8126C13.075 20.3526 12.1875 20.7876 12.1875 21.5626V22.4201C11.42 22.3776 10.67 22.3214 9.95877 22.2426C3.86501 21.6151 1.875 20.1301 1.875 19.6876C1.875 19.5526 2.28626 18.9163 4.28501 18.2513C4.70001 18.1551 5.00626 17.7826 5.00626 17.3376C5.00626 16.7213 4.35876 16.2563 3.77126 16.4463C1.26875 17.2651 0 18.3551 0 19.6876C0 22.7701 6.83002 23.8051 9.76002 24.1076C10.535 24.1926 11.3488 24.2551 12.1875 24.3001V25.3126C12.1875 26.0876 13.075 26.5214 13.6875 26.0626L16.1875 24.1876C16.685 23.8139 16.6875 23.0626 16.1875 22.6876L13.6875 20.8126Z" fill="#319F1C"/>
<path d="M26.2226 16.4461C25.7276 16.2849 25.2013 16.5549 25.0401 17.0474C24.8801 17.5399 25.1488 18.0686 25.6413 18.2299C27.6688 18.8899 28.1251 19.5199 28.1251 19.6886C28.1251 20.2424 25.5538 21.7861 19.19 22.3174C18.6738 22.3611 18.2913 22.8136 18.3338 23.3299C18.375 23.8236 18.7975 24.2236 19.3463 24.1861C22.5488 23.9161 30.0001 22.9424 30.0001 19.6874C30.0001 18.3536 28.7288 17.2624 26.2226 16.4461Z" fill="#319F1C"/>
<path d="M15 0L23.75 3.75001L15 7.50002L6.25 3.75001L15 0Z" fill="#319F1C"/>
<path d="M16.25 9.68348V16.9635L23.75 13.7497V6.46973L16.25 9.68348Z" fill="#319F1C"/>
<path d="M13.75 9.68348L6.25 6.46973V13.7497L13.75 16.9635V9.68348Z" fill="#319F1C"/>
</svg>
