<svg width="12" height="26" viewBox="0 0 12 26" fill="none" xmlns="http://www.w3.org/2000/svg">
<path fill-rule="evenodd" clip-rule="evenodd" d="M2.64218 12.6821V24.8493C2.64218 25.0244 2.78469 25.166 2.96044 25.166H7.48805C7.66293 25.166 7.80544 25.0244 7.80544 24.8493L7.80573 12.4836H11.0875C11.2525 12.4836 11.3895 12.3579 11.4043 12.194L11.7197 8.46791C11.7353 8.28329 11.5893 8.12406 11.4034 8.12406H7.80573V5.48114C7.80573 4.86123 8.30783 4.35901 8.92932 4.35901H11.4592C11.6341 4.35901 11.7763 4.21737 11.7763 4.04285L11.7766 0.317024C11.7766 0.141348 11.6341 0.000288466 11.4589 0.000288466L7.18453 0C4.67546 0 2.64218 2.02936 2.64218 4.53209V8.12406H0.378228C0.202766 8.12406 0.0605469 8.26656 0.0605469 8.44109V12.1669C0.0605469 12.3423 0.202477 12.4836 0.378228 12.4836H2.64218V12.6821Z" fill="white"/>
</svg>
