<svg width="25" height="24" viewBox="0 0 25 24" fill="none" xmlns="http://www.w3.org/2000/svg">
<path fill-rule="evenodd" clip-rule="evenodd" d="M12.1495 16.0003C10.0639 16.0003 8.36768 14.3072 8.36768 12.2268C8.36768 10.1456 10.0636 8.45312 12.1495 8.45312C14.2339 8.45312 15.9302 10.1456 15.9302 12.2268C15.9302 14.3072 14.2339 16.0003 12.1495 16.0003Z" fill="white"/>
<path fill-rule="evenodd" clip-rule="evenodd" d="M24.0602 7.33061C24.0602 3.36219 20.8363 0.145796 16.8594 0.145796L7.35753 0.145508C3.38058 0.145508 0.157227 3.36219 0.157227 7.33061L0.157516 16.8145C0.157516 20.7826 3.38058 23.9996 7.35753 23.9996H16.8594C20.8366 23.9996 24.06 20.7826 24.06 16.8145L24.0602 7.33061ZM18.3969 4.53769C17.6202 4.53769 16.9915 5.16539 16.9915 5.93992C16.9915 6.71445 17.6199 7.34215 18.3969 7.34215C19.173 7.34186 19.8009 6.71445 19.8009 5.93992C19.8012 5.16539 19.173 4.53769 18.3969 4.53769ZM12.1493 6.33541C8.89391 6.33541 6.24579 8.97804 6.24579 12.227C6.24608 15.4746 8.89391 18.1175 12.1493 18.1175C15.4042 18.1172 18.0515 15.4746 18.0515 12.227C18.0515 8.97804 15.4042 6.3357 12.1493 6.33541Z" fill="white"/>
</svg>
