<svg width="10" height="10" viewBox="0 0 10 10" fill="none" xmlns="http://www.w3.org/2000/svg">
<g clip-path="url(#clip0_3_85)">
<path d="M7.8125 3.75H7.5V2.5C7.5 1.12125 6.37875 0 5 0C3.62125 0 2.5 1.12125 2.5 2.5V3.75H2.1875C1.67083 3.75 1.25 4.17042 1.25 4.6875V9.0625C1.25 9.57958 1.67083 10 2.1875 10H7.8125C8.32917 10 8.75 9.57958 8.75 9.0625V4.6875C8.75 4.17042 8.32917 3.75 7.8125 3.75ZM3.33333 2.5C3.33333 1.58083 4.08083 0.833333 5 0.833333C5.91917 0.833333 6.66667 1.58083 6.66667 2.5V3.75H3.33333V2.5ZM5.41667 6.9675V7.91667C5.41667 8.14667 5.23042 8.33333 5 8.33333C4.76958 8.33333 4.58333 8.14667 4.58333 7.91667V6.9675C4.33542 6.82292 4.16667 6.55708 4.16667 6.25C4.16667 5.79042 4.54042 5.41667 5 5.41667C5.45958 5.41667 5.83333 5.79042 5.83333 6.25C5.83333 6.55708 5.66458 6.82292 5.41667 6.9675Z" fill="black"/>
</g>
<defs>
<clipPath id="clip0_3_85">
<rect width="10" height="10" fill="white"/>
</clipPath>
</defs>
</svg>
