<svg width="29" height="17" viewBox="0 0 29 17" fill="none" xmlns="http://www.w3.org/2000/svg">
<path fill-rule="evenodd" clip-rule="evenodd" d="M11.1958 3.83144C11.24 4.87366 11.3013 6.95552 10.8235 7.7237C10.1656 8.78122 8.85581 6.81042 8.51963 6.29032C7.95393 5.41598 7.42177 4.52404 6.93064 3.56143C6.68725 3.08517 6.46236 2.58699 6.23718 2.07929C5.95997 1.45246 5.93048 1.10428 5.27286 0.869469C4.87395 0.727543 3.67173 0.807737 3.15778 0.808314C2.44408 0.810622 1.72055 0.806295 1.00887 0.820141C0.263375 0.834853 -0.22919 1.09245 0.108437 1.88371C0.487689 2.76729 1.0531 3.93615 1.50086 4.80962C2.25676 6.28368 2.95717 7.56043 3.83708 8.9667C5.44746 11.5439 7.34719 14.14 10.3338 15.4315C11.3559 15.8737 12.6183 16.2248 13.8962 16.2115C14.4376 16.2066 15.5459 16.2808 15.981 16.127C16.6837 15.8775 16.5975 15.458 16.6594 14.6648C16.7065 14.0636 16.8357 13.3837 17.1254 12.9559C17.9359 11.7616 19.0303 13.204 19.6327 13.8441C20.3363 14.5918 20.904 15.4338 21.8695 15.9262C22.5566 16.2764 22.811 16.275 23.6634 16.2603L25.8109 16.23C26.4775 16.2233 27.2209 16.2787 27.8049 16.0682C28.3882 15.8576 28.6345 15.366 28.3006 14.7037C28.0653 14.2373 27.7282 13.7544 27.4302 13.4027C27.1192 13.0355 26.7555 12.5999 26.3971 12.2607L25.8545 11.7161C25.5594 11.4083 25.0796 10.9963 24.7526 10.6724C24.0904 10.0167 23.4703 9.55892 24.0086 8.5516C24.2439 8.1114 24.617 7.64063 24.9061 7.27399C25.8745 6.04426 27.8838 3.48268 28.3448 2.07352C28.5954 1.30678 28.4552 0.934373 27.6707 0.829083C27.4054 0.793602 23.729 0.840911 23.3694 0.84293C22.5552 0.849565 22.0698 0.696678 21.7322 1.37428C21.6119 1.61573 21.5206 1.89179 21.4136 2.14708L21.0913 2.87921C20.5141 4.2099 18.5606 7.64207 17.5303 7.95852C16.9138 8.14775 16.666 7.26302 16.6166 6.73455C16.5377 5.88704 16.6565 3.47316 16.6851 2.48199C16.7036 1.85487 16.7279 1.07341 16.3674 0.660619C15.7717 -0.0216022 13.7445 0.0784954 12.6307 0.0842648C11.9997 0.0880148 11.2305 0.121765 10.648 0.269171C10.1965 0.383115 9.39781 0.791583 9.45765 1.21909C9.53425 1.25947 9.78949 1.29698 9.90309 1.32871C10.2939 1.43544 10.6677 1.66881 10.8463 2.00054C11.1206 2.51199 11.1678 3.17373 11.1958 3.83144Z" fill="white"/>
</svg>
