<svg width="29" height="21" viewBox="0 0 29 21" fill="none" xmlns="http://www.w3.org/2000/svg">
<path fill-rule="evenodd" clip-rule="evenodd" d="M18.3255 10.7159C18.2994 10.7428 16.025 11.9543 15.7898 12.062C15.5022 12.2235 15.2146 12.385 14.9271 12.5466L13.2278 13.435C13.071 13.5158 11.607 14.3234 11.5025 14.3503V5.97767L11.6593 6.08535C11.79 6.11228 12.0515 6.27381 12.1822 6.32765C13.071 6.83916 19.2667 10.1236 19.3189 10.2044L18.3255 10.7159ZM0 8.53523V12.3312C0.026142 12.385 0.052284 13.5158 0.052284 13.7042C0.156852 15.3464 0.26142 17.904 1.3071 19.2501C1.72537 19.8154 2.43121 20.2462 3.26775 20.4616C4.02587 20.65 4.96698 20.7308 5.77738 20.7577C7.89488 20.8923 10.4045 20.9462 12.5743 20.9731C12.7834 20.9731 13.8291 20.9462 13.9598 21H15.3454C15.4761 20.9462 16.2603 20.9731 16.4433 20.9731C18.9791 20.9462 21.4887 20.8654 23.9984 20.7308C25.593 20.6231 26.4296 20.4616 27.3707 19.6001C27.7628 19.1962 27.9981 18.8463 28.2334 18.2001C28.4425 17.6886 28.6255 16.9617 28.7039 16.3695C28.8608 14.9965 28.9653 13.5158 28.9915 12.0889C29.0176 9.88132 29.0176 5.46615 28.4686 3.44702C28.1288 2.26247 27.6582 1.37405 26.5864 0.808693C26.0113 0.485632 25.5407 0.377945 24.8088 0.324102C24.1291 0.243337 23.4232 0.216415 22.7174 0.189493C18.3517 0.00104112 13.986 -0.0528024 9.59411 0.0548846C8.18244 0.108728 6.71849 0.13565 5.30683 0.243337C3.79059 0.351024 2.77105 0.377946 1.8038 1.21252C1.38553 1.58942 1.12411 1.88556 0.836544 2.53168C0.627408 3.0432 0.444414 3.6624 0.339846 4.2816C0.209136 4.92772 0.156852 5.70845 0.13071 6.35457C0.104568 6.73148 0.078426 7.08146 0.052284 7.43144C0.052284 7.61989 0.026142 8.42755 0 8.53523Z" fill="white"/>
</svg>
